<svg id="Capa_1" enable-background="new 0 0 512 512" height="512" viewBox="0 0 512 512" width="512" xmlns="http://www.w3.org/2000/svg"><path d="m412.708 273.583c-7.409-3.705-16.42-.701-20.124 6.708l-1.584 156.709c0 8.284 6.716 15 15 15h60c8.284 0 15-6.716 15-15v-52.918c0-46.773-26.418-89.562-68.292-110.499z" fill="#16aac8"/><path d="m119.416 280.292c-3.704-7.41-12.714-10.413-20.124-6.708-41.833 20.916-68.292 63.682-68.292 110.498v52.918c0 8.284 6.716 15 15 15h60c8.284 0 15-6.716 15-15z" fill="#76e2f8"/><path d="m418.09 193.67c-11.57-91.47-71.17-193.67-162.09-193.67-91.07 0-150.59 102.44-162.1 193.69-.95 7.52 3.85 14.56 11.19 16.42 7.35 1.86 14.92-2.04 17.67-9.09 4.99-12.82 20.69-25.51 43.08-34.83 25.07-10.44 57.09-16.19 90.16-16.19s65.08 5.75 90.15 16.18c22.38 9.32 38.09 22.01 43.09 34.82 2.75 7.06 10.33 10.95 17.67 9.09 7.33-1.87 12.13-8.91 11.18-16.42z" fill="#76e2f8"/><path d="m406.91 210.09c-7.34 1.86-14.92-2.03-17.67-9.09-5-12.81-20.71-25.5-43.09-34.82-25.07-10.43-57.08-16.18-90.15-16.18v-150c90.92 0 150.52 102.2 162.09 193.67.95 7.51-3.85 14.55-11.18 16.42z" fill="#16aac8"/><path d="m198.48 146.54c1.599-10.474-7.867-19.167-18.05-16.91-33.314 8.966-73.16 28.493-85.63 60.49-.44 1.15-.75 2.34-.9 3.56-1.25 9.85-2.11 20.18-2.56 30.69-.355 8.52 6.457 15.63 14.99 15.63h78.92c9.502 0 16.546-8.658 14.74-17.89-4.839-24.599-5.197-51.343-1.51-75.57z" fill="#16aac8"/><path d="m418.09 193.66c-.15-1.22-.46-2.42-.91-3.56-12.63-32.356-52.061-50.994-85.48-60.44-.02-.01-.04-.01-.06-.01-10.133-2.333-19.729 6.35-18.12 16.89 3.683 24.198 3.335 50.944-1.51 75.57-1.81 9.254 5.258 17.89 14.74 17.89h78.92c8.526 0 15.346-7.104 14.99-15.63-.44-10.44-1.31-20.77-2.57-30.71z" fill="#1178aa"/><path d="m341.45 227.89c-1.4 7.15-7.68 12.11-14.7 12.11h-141.5c-7.02 0-13.3-4.96-14.7-12.11-5.52-28.1-5.92-58.23-1.73-85.86.96-6.37 5.85-11.18 11.61-12.4 22.66-6.2 48.37-9.63 75.57-9.63 27.23 0 52.96 3.44 75.64 9.65.02 0 .04 0 .06.01 6.88 1.94 10.63 6.77 11.48 12.37 4.19 27.64 3.79 57.77-1.73 85.86z" fill="#ffcebf"/><path d="m341.45 227.89c-1.4 7.15-7.68 12.11-14.7 12.11h-70.75v-120c27.23 0 52.96 3.44 75.64 9.65.02 0 .04 0 .06.01 6.88 1.94 10.63 6.77 11.48 12.37 4.19 27.64 3.79 57.77-1.73 85.86z" fill="#ffbfab"/><path d="m421 225v212c0 8.28-6.72 15-15 15h-300c-8.28 0-15-6.72-15-15v-212c0-8.28 6.72-15 15-15h300c8.28 0 15 6.72 15 15z" fill="#edf5ff"/><path d="m421 225v212c0 8.28-6.72 15-15 15h-150v-242h150c8.28 0 15 6.72 15 15z" fill="#d5e8fe"/><path d="m330.55 493.36h-149.1l30-120c1.67-6.68 7.67-11.36 14.55-11.36h60c6.88 0 12.88 4.68 14.55 11.36z" fill="#d5e8fe"/><path d="m330.55 493.36h-74.55v-131.36h30c6.88 0 12.88 4.68 14.55 11.36z" fill="#b5dbff"/><path d="m361 497c0 8.28-6.72 15-15 15h-180c-8.28 0-15-6.72-15-15s6.72-15 15-15h180c8.28 0 15 6.72 15 15z" fill="#edf5ff"/><path d="m361 497c0 8.28-6.72 15-15 15h-90v-30h90c8.28 0 15 6.72 15 15z" fill="#d5e8fe"/></svg>